<svg width="65" height="46" viewBox="0 0 65 46" fill="none" xmlns="http://www.w3.org/2000/svg">
<path fill-rule="evenodd" clip-rule="evenodd" d="M6.68869 19.1085C7.48194 18.5472 8.76806 18.5472 9.56131 19.1085L32.5 35.3421L55.4387 19.1085C56.2319 18.5472 57.5181 18.5472 58.3113 19.1085C59.1046 19.6699 59.1046 20.5801 58.3113 21.1415L33.9363 38.3915C33.1431 38.9528 31.8569 38.9528 31.0637 38.3915L6.68869 21.1415C5.89544 20.5801 5.89544 19.6699 6.68869 19.1085Z" fill="white" fill-opacity="0.6"/>
<path fill-rule="evenodd" clip-rule="evenodd" d="M6.68869 7.60853C7.48194 7.04716 8.76806 7.04716 9.56131 7.60853L32.5 23.8421L55.4387 7.60853C56.2319 7.04716 57.5181 7.04716 58.3113 7.60853C59.1046 8.16991 59.1046 9.08009 58.3113 9.64147L33.9363 26.8915C33.1431 27.4528 31.8569 27.4528 31.0637 26.8915L6.68869 9.64147C5.89544 9.08009 5.89544 8.16991 6.68869 7.60853Z" fill="white" fill-opacity="0.6"/>
</svg>
