<svg width="30" height="30" viewBox="0 0 30 30" fill="none" xmlns="http://www.w3.org/2000/svg">
<path d="M13.125 26.25C13.125 26.25 11.25 26.25 11.25 24.375C11.25 22.5 13.125 16.875 20.625 16.875C28.125 16.875 30 22.5 30 24.375C30 26.25 28.125 26.25 28.125 26.25H13.125Z" fill="#C89D66"/>
<path d="M20.625 15C23.7316 15 26.25 12.4816 26.25 9.375C26.25 6.2684 23.7316 3.75 20.625 3.75C17.5184 3.75 15 6.2684 15 9.375C15 12.4816 17.5184 15 20.625 15Z" fill="#C89D66"/>
<path d="M9.78068 26.25C9.51668 25.7173 9.375 25.0859 9.375 24.375C9.375 21.8335 10.6482 19.2198 13.0049 17.3999C11.9739 17.0702 10.7721 16.875 9.375 16.875C1.875 16.875 0 22.5 0 24.375C0 26.25 1.875 26.25 1.875 26.25H9.78068Z" fill="#C89D66"/>
<path d="M8.4375 15C11.0263 15 13.125 12.9013 13.125 10.3125C13.125 7.72367 11.0263 5.625 8.4375 5.625C5.84867 5.625 3.75 7.72367 3.75 10.3125C3.75 12.9013 5.84867 15 8.4375 15Z" fill="#C89D66"/>
</svg>
