<svg width="35" height="35" viewBox="0 0 35 35" fill="none" xmlns="http://www.w3.org/2000/svg">
<path d="M20.5727 2.29772C19.6697 -0.765907 15.3303 -0.765906 14.4273 2.29772L14.2083 3.04069C13.6313 4.99822 11.3955 5.92435 9.6033 4.94815L8.9231 4.57765C6.11827 3.04985 3.04985 6.11827 4.57765 8.9231L4.94815 9.6033C5.92435 11.3955 4.99822 13.6313 3.04069 14.2083L2.29772 14.4273C-0.765907 15.3303 -0.765906 19.6697 2.29772 20.5727L3.04069 20.7917C4.99822 21.3687 5.92435 23.6045 4.94815 25.3967L4.57765 26.0769C3.04985 28.8817 6.11827 31.9502 8.92309 30.4224L9.6033 30.0518C11.3955 29.0757 13.6313 30.0018 14.2083 31.9593L14.4273 32.7023C15.3303 35.7659 19.6697 35.7659 20.5727 32.7023L20.7917 31.9593C21.3687 30.0018 23.6045 29.0757 25.3967 30.0518L26.0769 30.4224C28.8817 31.9502 31.9502 28.8817 30.4224 26.0769L30.0518 25.3967C29.0756 23.6045 30.0018 21.3687 31.9593 20.7917L32.7023 20.5727C35.7659 19.6697 35.7659 15.3303 32.7023 14.4273L31.9593 14.2083C30.0018 13.6313 29.0756 11.3955 30.0518 9.6033L30.4224 8.92309C31.9502 6.11827 28.8817 3.04985 26.0769 4.57765L25.3967 4.94815C23.6045 5.92435 21.3687 4.99822 20.7917 3.04069L20.5727 2.29772ZM17.5 23.9068C13.9616 23.9068 11.0932 21.0384 11.0932 17.5C11.0932 13.9616 13.9616 11.0932 17.5 11.0932C21.0384 11.0932 23.9068 13.9616 23.9068 17.5C23.9068 21.0384 21.0384 23.9068 17.5 23.9068Z" fill="#9D9D9D"/>
</svg>
