<svg width="35" height="35" viewBox="0 0 35 35" fill="none" xmlns="http://www.w3.org/2000/svg">
<path d="M0 17.5C0 7.83502 7.83502 0 17.5 0C27.165 0 35 7.83502 35 17.5C35 27.165 27.165 35 17.5 35C7.83502 35 0 27.165 0 17.5ZM16.4062 2.35496C14.9419 2.8028 13.4851 4.15017 12.2779 6.41372C11.8999 7.12238 11.5566 7.90481 11.2547 8.74999H16.4062V2.35496ZM8.94587 8.74999C9.33616 7.52804 9.80711 6.39797 10.3477 5.38431C10.7387 4.65128 11.1751 3.96465 11.6534 3.34327C8.9276 4.47023 6.59813 6.36153 4.93212 8.74999H8.94587ZM7.67474 16.4062C7.73979 14.4882 7.97496 12.6475 8.35626 10.9375H3.66106C2.86415 12.615 2.36328 14.4604 2.22595 16.4062H7.67474ZM10.6025 10.9375C10.1939 12.6109 9.93457 14.4545 9.86357 16.4062H16.4062V10.9375H10.6025ZM18.5937 10.9375V16.4062H25.1364C25.0654 14.4545 24.8061 12.6109 24.3975 10.9375H18.5937ZM9.86357 18.5937C9.93457 20.5455 10.1939 22.3891 10.6025 24.0625H16.4062V18.5937H9.86357ZM18.5937 18.5937V24.0625H24.3975C24.8061 22.3891 25.0654 20.5455 25.1364 18.5937H18.5937ZM11.2547 26.25C11.5566 27.0952 11.8999 27.8776 12.2779 28.5863C13.4851 30.8498 14.9419 32.1972 16.4062 32.645V26.25H11.2547ZM11.6534 31.6567C11.1751 31.0353 10.7387 30.3487 10.3477 29.6157C9.80711 28.602 9.33616 27.4719 8.94587 26.25H4.93212C6.59813 28.6384 8.9276 30.5297 11.6534 31.6567ZM8.35626 24.0625C7.97496 22.3525 7.73979 20.5118 7.67474 18.5937H2.22595C2.36328 20.5395 2.86415 22.385 3.66106 24.0625H8.35626ZM23.3466 31.6567C26.0724 30.5297 28.4019 28.6384 30.0679 26.25H26.0541C25.6638 27.4719 25.1929 28.602 24.6523 29.6157C24.2613 30.3487 23.8249 31.0353 23.3466 31.6567ZM18.5937 26.25V32.645C20.0581 32.1972 21.5149 30.8498 22.7221 28.5863C23.1001 27.8776 23.4434 27.0952 23.7453 26.25H18.5937ZM26.6437 24.0625H31.3389C32.1358 22.385 32.6367 20.5395 32.774 18.5937H27.3252C27.2602 20.5118 27.025 22.3525 26.6437 24.0625ZM32.774 16.4062C32.6367 14.4604 32.1358 12.615 31.3389 10.9375H26.6437C27.025 12.6475 27.2602 14.4882 27.3252 16.4062H32.774ZM24.6523 5.38431C25.1929 6.39797 25.6638 7.52804 26.0541 8.74999H30.0679C28.4019 6.36152 26.0724 4.47023 23.3466 3.34326C23.8249 3.96464 24.2613 4.65128 24.6523 5.38431ZM23.7453 8.74999C23.4434 7.90481 23.1001 7.12238 22.7221 6.41372C21.5149 4.15017 20.0581 2.8028 18.5937 2.35496V8.74999H23.7453Z" fill="#9D9D9D"/>
</svg>
